HIERARCHY
ROOT hip
{
  OFFSET 20.0837 83.4319 47.4351
  CHANNELS 6 Xposition Yposition Zposition Zrotation Xrotation Yrotation
  JOINT abdomen
  {
    OFFSET 0 20.6881 -0.73152
    CHANNELS 3 Zrotation Xrotation Yrotation
    JOINT chest
    {
      OFFSET 0 11.7043 -0.48768
      CHANNELS 3 Zrotation Xrotation Yrotation
      JOINT neck
      {
        OFFSET 0 22.1894 -2.19456
        CHANNELS 3 Zrotation Xrotation Yrotation
        JOINT head
        {
          OFFSET -0.24384 7.07133 1.2192
          CHANNELS 3 Zrotation Xrotation Yrotation
          JOINT leftEye
          {
            OFFSET 4.14528 8.04674 8.04672
            CHANNELS 3 Zrotation Xrotation Yrotation
            End Site
            {
              OFFSET 1 0 0
            }
          }
          JOINT rightEye
          {
            OFFSET -3.6576 8.04674 8.04672
            CHANNELS 3 Zrotation Xrotation Yrotation
            End Site
            {
              OFFSET 1 0 0
            }
          }
        }
      }
      JOINT rCollar
      {
        OFFSET -2.68224 19.2634 -4.8768
        CHANNELS 3 Zrotation Xrotation Yrotation
        JOINT rShldr
        {
          OFFSET -8.77824 -1.95073 1.46304
          CHANNELS 3 Zrotation Xrotation Yrotation
          JOINT rForeArm
          {
            OFFSET -28.1742 -1.7115 0.48768
            CHANNELS 3 Zrotation Xrotation Yrotation
            JOINT rHand
            {
              OFFSET -22.5879 0.773209 7.07136
              CHANNELS 3 Zrotation Xrotation Yrotation
              JOINT rThumb1
              {
                OFFSET -1.2192 -0.487915 3.41376
                CHANNELS 3 Zrotation Xrotation Yrotation
                JOINT rThumb2
                {
                  OFFSET -3.37035 -0.52449 3.41376
                  CHANNELS 3 Zrotation Xrotation Yrotation
                  End Site
                  {
                    OFFSET -1.78271 -1.18214 1.43049
                  }
                }
              }
              JOINT rIndex1
              {
                OFFSET -7.75947 0.938293 5.60832
                CHANNELS 3 Zrotation Xrotation Yrotation
                JOINT rIndex2
                {
                  OFFSET -2.54057 -0.884171 1.56538
                  CHANNELS 3 Zrotation Xrotation Yrotation
                  End Site
                  {
                    OFFSET -1.62519 -0.234802 1.16502
                  }
                }
              }
              JOINT rMid1
              {
                OFFSET -8.24714 1.18213 3.41376
                CHANNELS 3 Zrotation Xrotation Yrotation
                JOINT rMid2
                {
                  OFFSET -3.10165 -0.590103 1.0647
                  CHANNELS 3 Zrotation Xrotation Yrotation
                  End Site
                  {
                    OFFSET -2.48547 -0.328903 0.83742
                  }
                }
              }
              JOINT rRing1
              {
                OFFSET -8.82822 0.546677 1.51678
                CHANNELS 3 Zrotation Xrotation Yrotation
                JOINT rRing2
                {
                  OFFSET -2.60934 -0.819778 -0.0198488
                  CHANNELS 3 Zrotation Xrotation Yrotation
                  End Site
                  {
                    OFFSET -2.33842 -0.294052 0.168128
                  }
                }
              }
              JOINT rPinky1
              {
                OFFSET -8.27202 -0.0477905 -0.4584
                CHANNELS 3 Zrotation Xrotation Yrotation
                JOINT rPinky2
                {
                  OFFSET -1.82734 -0.647385 -0.700984
                  CHANNELS 3 Zrotation Xrotation Yrotation
                  End Site
                  {
                    OFFSET -1.69225 -0.51767 -0.607171
                  }
                }
              }
            }
          }
        }
      }
      JOINT lCollar
      {
        OFFSET 2.68224 19.2634 -4.8768
        CHANNELS 3 Zrotation Xrotation Yrotation
        JOINT lShldr
        {
          OFFSET 8.77824 -1.95073 1.46304
          CHANNELS 3 Zrotation Xrotation Yrotation
          JOINT lForeArm
          {
            OFFSET 28.1742 -1.7115 0.48768
            CHANNELS 3 Zrotation Xrotation Yrotation
            JOINT lHand
            {
              OFFSET 22.5879 0.773209 7.07136
              CHANNELS 3 Zrotation Xrotation Yrotation
              JOINT lThumb1
              {
                OFFSET 1.2192 -0.487915 3.41376
                CHANNELS 3 Zrotation Xrotation Yrotation
                JOINT lThumb2
                {
                  OFFSET 3.37035 -0.52449 3.41376
                  CHANNELS 3 Zrotation Xrotation Yrotation
                  End Site
                  {
                    OFFSET 1.78271 -1.18214 1.43049
                  }
                }
              }
              JOINT lIndex1
              {
                OFFSET 7.75947 0.938293 5.60832
                CHANNELS 3 Zrotation Xrotation Yrotation
                JOINT lIndex2
                {
                  OFFSET 2.54057 -0.884171 1.56538
                  CHANNELS 3 Zrotation Xrotation Yrotation
                  End Site
                  {
                    OFFSET 1.62519 -0.234802 1.16502
                  }
                }
              }
              JOINT lMid1
              {
                OFFSET 8.24714 1.18213 3.41376
                CHANNELS 3 Zrotation Xrotation Yrotation
                JOINT lMid2
                {
                  OFFSET 3.10165 -0.590103 1.0647
                  CHANNELS 3 Zrotation Xrotation Yrotation
                  End Site
                  {
                    OFFSET 2.48547 -0.328903 0.83742
                  }
                }
              }
              JOINT lRing1
              {
                OFFSET 8.82822 0.546677 1.51678
                CHANNELS 3 Zrotation Xrotation Yrotation
                JOINT lRing2
                {
                  OFFSET 2.60934 -0.819778 -0.0198488
                  CHANNELS 3 Zrotation Xrotation Yrotation
                  End Site
                  {
                    OFFSET 2.33842 -0.294052 0.168128
                  }
                }
              }
              JOINT lPinky1
              {
                OFFSET 8.27202 -0.0477905 -0.4584
                CHANNELS 3 Zrotation Xrotation Yrotation
                JOINT lPinky2
                {
                  OFFSET 1.82734 -0.647385 -0.700984
                  CHANNELS 3 Zrotation Xrotation Yrotation
                  End Site
                  {
                    OFFSET 1.69225 -0.51767 -0.607171
                  }
                }
              }
            }
          }
        }
      }
    }
  }
  JOINT rButtock
  {
    OFFSET -8.77824 4.35084 1.2192
    CHANNELS 3 Zrotation Xrotation Yrotation
    JOINT rThigh
    {
      OFFSET 0 -1.70687 -2.19456
      CHANNELS 3 Zrotation Xrotation Yrotation
      JOINT rShin
      {
        OFFSET 0 -36.8199 0.73152
        CHANNELS 3 Zrotation Xrotation Yrotation
        JOINT rFoot
        {
          OFFSET 0.73152 -45.1104 -5.12064
          CHANNELS 3 Zrotation Xrotation Yrotation
          End Site
          {
            OFFSET -1.1221 -3.69964 12.103
          }
        }
      }
    }
  }
  JOINT lButtock
  {
    OFFSET 8.77824 4.35084 1.2192
    CHANNELS 3 Zrotation Xrotation Yrotation
    JOINT lThigh
    {
      OFFSET 0 -1.70687 -2.19456
      CHANNELS 3 Zrotation Xrotation Yrotation
      JOINT lShin
      {
        OFFSET 0 -36.8199 0.73152
        CHANNELS 3 Zrotation Xrotation Yrotation
        JOINT lFoot
        {
          OFFSET -0.73152 -45.1104 -5.12064
          CHANNELS 3 Zrotation Xrotation Yrotation
          End Site
          {
            OFFSET 1.1221 -3.69964 12.103
          }
        }
      }
    }
  }
}
MOTION
Frames:	6
Frame Time:	0.00833333
60.8554 62.6337 87.6891 6.18995 -16.6007 -177.828 2.97036 -12.6675 2.90043 -2.04406 11.7022 0.356684 -1.37861 14.8776 5.09769 -0.704901 -12.5613 8.50933 -0 0 0 -0 0 0 2.10817e-013 -2.51259e-013 9.68578e-014 70.6751 21.4138 -4.34621 -24.4561 -19.9737 51.0855 -0.0999591 -8.98131 -1.27271 -9.45512e-010 1.59058e-009 -1.44318e-009 -1.6219e-009 2.73639e-009 -2.49339e-009 -9.45513e-010 1.59059e-009 -1.44319e-009 7.73091 5.47488 0.417314 -9.45517e-010 1.59059e-009 -1.44318e-009 2.90554 0.965183 0.102902 -9.45509e-010 1.59059e-009 -1.44317e-009 10.2786 0.731801 0.0259123 -9.45518e-010 1.59059e-009 -1.44316e-009 2.22167 -0.733487 -0.20892 2.10521e-013 -2.51271e-013 9.651e-014 -65.6141 12.9292 9.26444 12.8508 -6.06374 -23.2692 0.0220954 -4.23945 0.596955 -2.4338e-009 -1.916e-009 -6.29079e-010 -4.20836e-009 -3.31533e-009 -1.09021e-009 -2.43381e-009 -1.916e-009 -6.29072e-010 -7.73091 5.47488 -0.417314 -2.4338e-009 -1.916e-009 -6.29076e-010 -2.90554 0.965183 -0.102902 -2.43381e-009 -1.916e-009 -6.29071e-010 -10.2786 0.731801 -0.0259123 -2.4338e-009 -1.916e-009 -6.29072e-010 -2.22167 -0.733487 0.20892 -2.03217e-016 0 -3.88251e-019 -30.3383 -2.90116 10.7153 -0.040524 35.8399 2.25509 -1.95424 -36.4462 -9.1862 2.03217e-016 0 3.88251e-019 45.3252 -54.5231 16.9135 0.196593 30.2168 -0.684315 -5.67847 10.5931 11.2112 
60.2253 62.3029 87.5283 6.309 -17.2863 -177.951 1.91154 -12.2508 2.54584 -1.3801 11.5107 0.205245 -1.56042 14.7928 4.99359 -0.372687 -13.2253 8.45979 -0 0 0 -0 0 0 1.82907e-013 -8.84912e-014 7.63613e-014 70.7831 21.1268 -4.00813 -24.5262 -20.1126 51.3266 -0.0974103 -8.86703 -1.25625 -1.56538e-009 2.95056e-009 2.80349e-010 -2.70686e-009 5.10867e-009 4.79888e-010 -1.56538e-009 2.95056e-009 2.80334e-010 7.73091 5.47488 0.417314 -1.56539e-009 2.95057e-009 2.80347e-010 2.90554 0.965183 0.102902 -1.56538e-009 2.95057e-009 2.80351e-010 10.2786 0.731801 0.0259123 -1.56539e-009 2.95057e-009 2.8036e-010 2.22167 -0.733487 -0.20892 1.82643e-013 -8.85036e-014 7.60305e-014 -65.0609 13.2108 8.36232 12.8697 -6.07772 -23.3065 0.0216558 -4.19623 0.590847 -1.7322e-009 -2.78351e-010 6.06307e-010 -2.99439e-009 -4.82499e-010 1.04604e-009 -1.7322e-009 -2.78349e-010 6.06314e-010 -7.73091 5.47488 -0.417314 -1.7322e-009 -2.7835e-010 6.06309e-010 -2.90554 0.965183 -0.102902 -1.73221e-009 -2.7835e-010 6.06315e-010 -10.2786 0.731801 -0.0259123 -1.73219e-009 -2.78349e-010 6.06312e-010 -2.22167 -0.733487 0.20892 -2.03217e-016 0 -3.88251e-019 -31.0537 -2.93978 10.5091 -0.0300821 35.5752 2.30278 -1.99427 -35.9535 -9.33242 2.03217e-016 0 3.88251e-019 46.737 -56.3395 19.7644 0.206491 32.6609 -0.804503 -5.54118 10.2647 9.85692 
59.6185 62.0481 87.366 6.43561 -17.9208 -178.238 0.729822 -11.6942 2.05026 -0.624851 11.3932 0.00837487 -1.82744 14.6997 4.8659 0.030064 -14.0486 8.40023 -0 0 0 -0 0 0 9.77227e-014 1.96503e-013 2.0655e-014 70.8238 20.7106 -3.47334 -24.5706 -20.2017 51.4767 -0.0940759 -8.71288 -1.23407 -2.30013e-009 4.60545e-009 3.02927e-009 -3.99869e-009 8.00248e-009 5.22253e-009 -2.30013e-009 4.60545e-009 3.02925e-009 7.73091 5.47488 0.417314 -2.30014e-009 4.60545e-009 3.02927e-009 2.90554 0.965183 0.102902 -2.30013e-009 4.60545e-009 3.02927e-009 10.2786 0.731801 0.0259123 -2.30014e-009 4.60546e-009 3.02927e-009 2.22167 -0.733487 -0.20892 9.75401e-014 1.96493e-013 2.03816e-014 -64.4926 13.4702 7.25709 12.8857 -6.08956 -23.3382 0.0205624 -4.0873 0.575457 -2.49591e-010 2.49156e-009 2.48983e-009 -4.2944e-010 4.30919e-009 4.30341e-009 -2.49597e-010 2.49156e-009 2.48984e-009 -7.73091 5.47488 -0.417314 -2.4959e-010 2.49156e-009 2.48983e-009 -2.90554 0.965183 -0.102902 -2.49599e-010 2.49156e-009 2.48984e-009 -10.2786 0.731801 -0.0259123 -2.49587e-010 2.49156e-009 2.48983e-009 -2.22167 -0.733487 0.20892 -2.03217e-016 0 -3.88251e-019 -31.7436 -2.90345 10.2335 -0.0202046 35.3888 2.35721 -2.20149 -35.3245 -9.76564 2.03217e-016 0 3.88251e-019 48.4033 -58.363 22.8518 0.223393 35.3512 -0.944353 -5.49949 10.3577 8.51034 
59.05 61.8564 87.1746 6.52259 -18.5417 -178.586 -0.408603 -11.0997 1.58378 0.0859426 11.3262 -0.177756 -2.06835 14.5911 4.7113 0.4362 -14.8814 8.29301 -0 0 0 -0 0 0 8.57051e-015 4.7946e-013 -3.68932e-014 70.9165 20.2249 -2.9118 -24.6101 -20.282 51.6059 -0.0917363 -8.60273 -1.21823 -2.96301e-009 6.09493e-009 5.7002e-009 -5.16574e-009 1.06093e-008 9.83057e-009 -2.96301e-009 6.09493e-009 5.70018e-009 7.73091 5.47488 0.417314 -2.96301e-009 6.09493e-009 5.7002e-009 2.90554 0.965183 0.102902 -2.963e-009 6.09493e-009 5.70019e-009 10.2786 0.731801 0.0259123 -2.96301e-009 6.09494e-009 5.7002e-009 2.22167 -0.733487 -0.20892 8.47744e-015 4.79452e-013 -3.70966e-014 -63.8287 13.7926 6.01522 12.9096 -6.10735 -23.3851 0.0190899 -3.93742 0.554287 1.24301e-009 5.20605e-009 4.28429e-009 2.15277e-009 9.00505e-009 7.40677e-009 1.24301e-009 5.20605e-009 4.2843e-009 -7.73091 5.47488 -0.417314 1.24301e-009 5.20604e-009 4.28429e-009 -2.90554 0.965183 -0.102902 1.243e-009 5.20604e-009 4.28429e-009 -10.2786 0.731801 -0.0259123 1.24301e-009 5.20604e-009 4.28429e-009 -2.22167 -0.733487 0.20892 -2.03217e-016 0 -3.88251e-019 -32.3495 -2.83598 9.97205 -0.0108887 35.1987 2.41013 -2.41227 -34.6074 -10.2142 2.03217e-016 0 3.88251e-019 50.3658 -60.3496 26.1429 0.250696 37.995 -1.08912 -5.48509 10.6044 7.28253 
58.6113 61.7168 86.883 6.52686 -19.1869 -178.89 -1.34751 -10.5707 1.31433 0.616593 11.2861 -0.296979 -2.17198 14.4595 4.52654 0.77735 -15.5735 8.0989 -0 0 0 -0 0 0 -3.12409e-014 6.36114e-013 -6.29153e-014 71.1723 19.7317 -2.49068 -24.6643 -20.3928 51.7848 -0.092012 -8.62044 -1.22076 -3.36727e-009 6.95869e-009 7.18976e-009 -5.87634e-009 1.21205e-008 1.24e-008 -3.36726e-009 6.95869e-009 7.18974e-009 7.73091 5.47488 0.417314 -3.36727e-009 6.95869e-009 7.18976e-009 2.90554 0.965183 0.102902 -3.36726e-009 6.95869e-009 7.18975e-009 10.2786 0.731801 0.0259123 -3.36727e-009 6.9587e-009 7.18976e-009 2.22167 -0.733487 -0.20892 -3.12789e-014 6.36108e-013 -6.30644e-014 -62.9823 14.2651 4.70175 12.9519 -6.13917 -23.468 0.0174772 -3.77138 0.530841 1.9746e-009 6.67742e-009 5.25249e-009 3.41852e-009 1.15504e-008 9.08098e-009 1.97459e-009 6.67741e-009 5.2525e-009 -7.73091 5.47488 -0.417314 1.9746e-009 6.67741e-009 5.25249e-009 -2.90554 0.965183 -0.102902 1.97459e-009 6.67741e-009 5.2525e-009 -10.2786 0.731801 -0.0259123 1.9746e-009 6.67741e-009 5.25249e-009 -2.22167 -0.733487 0.20892 -2.03217e-016 0 -3.88251e-019 -32.8137 -2.78144 9.80826 -0.00191885 34.9232 2.45323 -2.47886 -33.8523 -10.4159 2.03217e-016 0 3.88251e-019 52.543 -62.0721 29.4873 0.284435 40.2994 -1.21889 -5.45636 10.7347 6.2893 
58.1618 61.5812 86.6769 6.42849 -19.8662 -179.188 -2.0611 -10.1289 1.27265 0.907782 11.3021 -0.336721 -2.06477 14.2903 4.29657 1.02965 -16.084 7.77829 -0 0 0 -0 0 0 9.27819e-015 6.18695e-013 -3.78825e-014 71.699 19.1818 -2.29312 -24.7463 -20.5617 52.06 -0.0965561 -8.84224 -1.25263 -3.53237e-009 7.14652e-009 7.17941e-009 -6.16165e-009 1.24463e-008 1.23808e-008 -3.53236e-009 7.14653e-009 7.1794e-009 7.73091 5.47488 0.417314 -3.53237e-009 7.14652e-009 7.17941e-009 2.90554 0.965183 0.102902 -3.53236e-009 7.14652e-009 7.17941e-009 10.2786 0.731801 0.0259123 -3.53237e-009 7.14652e-009 7.17942e-009 2.22167 -0.733487 -0.20892 9.24514e-015 6.1869e-013 -3.79916e-014 -61.8529 14.9292 3.28385 13.0139 -6.18582 -23.5902 0.01544 -3.55879 0.500831 1.53411e-009 6.46854e-009 5.1162e-009 2.65692e-009 1.11889e-008 8.84436e-009 1.53411e-009 6.46854e-009 5.11621e-009 -7.73091 5.47488 -0.417314 1.53411e-009 6.46854e-009 5.1162e-009 -2.90554 0.965183 -0.102902 1.5341e-009 6.46853e-009 5.11621e-009 -10.2786 0.731801 -0.0259123 1.53412e-009 6.46853e-009 5.1162e-009 -2.22167 -0.733487 0.20892 -2.03217e-016 0 -3.88251e-019 -33.0828 -2.7086 9.74906 0.00658616 34.5406 2.48209 -2.37955 -33.082 -10.2986 2.03217e-016 0 3.88251e-019 54.8011 -63.5708 32.7701 0.315138 42.2198 -1.32331 -5.42169 10.7758 5.60855 
